<svg viewBox="0 0 600 338" xmlns="http://www.w3.org/2000/svg">
  <defs>
    <radialGradient id="fbg" cx="50%" cy="80%"><stop offset="0%" stop-color="#2a0800"/><stop offset="100%" stop-color="#06080f"/></radialGradient>
    <radialGradient id="fcore" cx="50%" cy="100%"><stop offset="0%" stop-color="#ff4400" stop-opacity="0.9"/><stop offset="30%" stop-color="#ff6d00" stop-opacity="0.6"/><stop offset="70%" stop-color="#ffd166" stop-opacity="0.15"/><stop offset="100%" stop-color="#06080f" stop-opacity="0"/></radialGradient>
    <filter id="ffglow"><feGaussianBlur stdDeviation="6" result="b"/><feMerge><feMergeNode in="b"/><feMergeNode in="SourceGraphic"/></feMerge></filter>
  </defs>
  <rect width="600" height="338" fill="url(#fbg)"/>
  <!-- fire base -->
  <ellipse cx="300" cy="338" rx="280" ry="80" fill="url(#fcore)"/>
  <!-- smoke clouds -->
  <ellipse cx="200" cy="200" rx="60" ry="40" fill="#1a0800" opacity="0.5"/>
  <ellipse cx="400" cy="190" rx="55" ry="35" fill="#1a0800" opacity="0.5"/>
  <ellipse cx="300" cy="180" rx="70" ry="45" fill="#150600" opacity="0.4"/>
  <!-- fire tongues -->
  <path d="M220,338 Q210,290 240,260 Q225,230 250,210 Q230,180 260,160" fill="none" stroke="#ff4400" stroke-width="3" opacity="0.6" filter="url(#ffglow)"/>
  <path d="M380,338 Q390,290 360,260 Q375,230 350,210 Q370,180 340,160" fill="none" stroke="#ff4400" stroke-width="3" opacity="0.6" filter="url(#ffglow)"/>
  <path d="M300,338 Q295,310 300,280 Q290,250 305,230" fill="none" stroke="#ffd166" stroke-width="2.5" opacity="0.7"/>
  <path d="M260,338 Q255,300 265,270" fill="none" stroke="#ff6d00" stroke-width="2" opacity="0.5"/>
  <path d="M340,338 Q345,300 335,270" fill="none" stroke="#ff6d00" stroke-width="2" opacity="0.5"/>
  <!-- figure standing defiant in flames - arms raised -->
  <ellipse cx="300" cy="170" rx="20" ry="20" fill="#0d0010"/>
  <rect x="291" y="189" width="18" height="42" rx="4" fill="#0d0010"/>
  <!-- arms raised in defiance -->
  <path d="M291,200 Q265,185 245,170 Q230,158 225,145" fill="none" stroke="#0d0010" stroke-width="10" stroke-linecap="round"/>
  <path d="M309,200 Q335,185 355,170 Q370,158 375,145" fill="none" stroke="#0d0010" stroke-width="10" stroke-linecap="round"/>
  <!-- legs braced wide -->
  <path d="M294,230 Q280,256 268,278" fill="none" stroke="#0d0010" stroke-width="10" stroke-linecap="round"/>
  <path d="M306,230 Q320,256 332,278" fill="none" stroke="#0d0010" stroke-width="10" stroke-linecap="round"/>
  <!-- orange rim light on edges -->
  <ellipse cx="300" cy="205" rx="30" ry="55" fill="none" stroke="#ff6d00" stroke-width="3" opacity="0.4" filter="url(#ffglow)"/>
  <!-- sparks flying -->
  <circle cx="265" cy="200" r="2" fill="#ffd166" opacity="0.8"/>
  <circle cx="338" cy="195" r="3" fill="#ff9d00" opacity="0.7"/>
  <circle cx="250" cy="230" r="1.5" fill="#ffd166" opacity="0.6"/>
  <circle cx="355" cy="225" r="2" fill="#ff6d00" opacity="0.6"/>
  <circle cx="280" cy="250" r="2" fill="#ffd166" opacity="0.5"/>
  <circle cx="320" cy="245" r="1.5" fill="#ff9d00" opacity="0.5"/>
  <circle cx="240" cy="260" r="2.5" fill="#ff4400" opacity="0.5"/>
  <circle cx="360" cy="255" r="2" fill="#ff4400" opacity="0.5"/>
</svg>
